# Blender 5.1.2
# www.blender.org
o cube
v 0.760225 2.373231 0.613945 0.4039 0.4039 0.4039
v 0.760225 2.233750 -0.935561 0.4039 0.4039 0.4039
v 0.760225 0.823726 0.753427 0.4039 0.4039 0.4039
v 0.760225 0.684244 -0.796079 0.4039 0.4039 0.4039
v -0.795546 2.233750 -0.935561 0.4039 0.4039 0.4039
v -0.795546 2.373231 0.613945 0.4039 0.4039 0.4039
v -0.795546 0.684244 -0.796079 0.4039 0.4039 0.4039
v -0.795546 0.823726 0.753427 0.4039 0.4039 0.4039
s 1
f 4 7 5 2
f 3 4 2 1
f 8 3 1 6
f 7 8 6 5
f 6 1 2 5
f 7 4 3 8
o cube.001
v 0.371282 1.458996 -0.865820 0.4039 0.4039 0.4039
v 0.371282 1.424126 -1.253196 0.4039 0.4039 0.4039
v 0.371282 1.071620 -0.830949 0.4039 0.4039 0.4039
v 0.371282 1.036749 -1.218326 0.4039 0.4039 0.4039
v -0.406604 1.424126 -1.253196 0.4039 0.4039 0.4039
v -0.406604 1.458996 -0.865820 0.4039 0.4039 0.4039
v -0.406604 1.036749 -1.218326 0.4039 0.4039 0.4039
v -0.406604 1.071620 -0.830949 0.4039 0.4039 0.4039
s 1
f 12 15 13 10
f 11 12 10 9
f 16 11 9 14
f 15 16 14 13
f 14 9 10 13
f 15 12 11 16
o cube.002
v 0.662989 0.897191 0.124354 0.4039 0.4039 0.4039
v 0.662989 0.590337 -0.114637 0.4039 0.4039 0.4039
v 0.662989 0.419207 0.738063 0.4039 0.4039 0.4039
v 0.662989 0.112353 0.499071 0.4039 0.4039 0.4039
v 0.176811 0.590337 -0.114637 0.4039 0.4039 0.4039
v 0.176811 0.897191 0.124354 0.4039 0.4039 0.4039
v 0.176811 0.112353 0.499071 0.4039 0.4039 0.4039
v 0.176811 0.419207 0.738063 0.4039 0.4039 0.4039
s 1
f 20 23 21 18
f 19 20 18 17
f 24 19 17 22
f 23 24 22 21
f 22 17 18 21
f 23 20 19 24
o cube.003
v -0.212132 0.657777 0.121261 0.4039 0.4039 0.4039
v -0.212132 0.897884 -0.184721 0.4039 0.4039 0.4039
v -0.212132 0.045813 -0.358953 0.4039 0.4039 0.4039
v -0.212132 0.285920 -0.664935 0.4039 0.4039 0.4039
v -0.698310 0.897884 -0.184721 0.4039 0.4039 0.4039
v -0.698310 0.657777 0.121261 0.4039 0.4039 0.4039
v -0.698310 0.285920 -0.664936 0.4039 0.4039 0.4039
v -0.698310 0.045813 -0.358953 0.4039 0.4039 0.4039
s 1
f 28 31 29 26
f 27 28 26 25
f 32 27 25 30
f 31 32 30 29
f 30 25 26 29
f 31 28 27 32
o cube.004
v 1.552210 1.176532 0.331153 0.4039 0.4039 0.4039
v 1.552210 1.106791 -0.443600 0.4039 0.4039 0.4039
v 1.370684 0.833933 0.361993 0.4039 0.4039 0.4039
v 1.370684 0.764192 -0.412760 0.4039 0.4039 0.4039
v 0.864242 1.468380 -0.476149 0.4039 0.4039 0.4039
v 0.864242 1.538121 0.298604 0.4039 0.4039 0.4039
v 0.682716 1.125781 -0.445309 0.4039 0.4039 0.4039
v 0.682716 1.195522 0.329443 0.4039 0.4039 0.4039
s 1
f 36 39 37 34
f 35 36 34 33
f 40 35 33 38
f 39 40 38 37
f 38 33 34 37
f 39 36 35 40
o cube.005
v -0.878576 1.551622 0.297388 0.4039 0.4039 0.4039
v -0.878576 1.481881 -0.477364 0.4039 0.4039 0.4039
v -0.734868 1.191657 0.329791 0.4039 0.4039 0.4039
v -0.734868 1.121916 -0.444961 0.4039 0.4039 0.4039
v -1.601416 1.195622 -0.451596 0.4039 0.4039 0.4039
v -1.601416 1.265363 0.323157 0.4039 0.4039 0.4039
v -1.457708 0.835658 -0.419193 0.4039 0.4039 0.4039
v -1.457708 0.905399 0.355560 0.4039 0.4039 0.4039
s 1
f 44 47 45 42
f 43 44 42 41
f 48 43 41 46
f 47 48 46 45
f 46 41 42 45
f 47 44 43 48
