# Blender 5.0.1
# www.blender.org
mtllib test.mtl
o Head
v 1.000000 7.905154 -1.000001
v 1.000000 5.905154 -1.000000
v 1.000000 7.905154 0.999999
v 1.000000 5.905154 1.000000
v -1.000000 7.905154 -1.000001
v -1.000000 5.905154 -1.000000
v -1.000000 7.905154 0.999999
v -1.000000 5.905154 1.000000
v 0.000000 5.905154 -1.000000
v 0.000000 7.905154 0.999999
v 0.000000 5.905154 1.000000
v 0.000000 7.905154 -1.000001
v 1.000000 6.905154 -1.000000
v -1.000000 6.905154 0.999999
v 1.000000 6.905154 0.999999
v -1.000000 6.905154 -1.000000
v 0.000000 6.905154 -1.000000
v 0.000000 6.905154 0.999999
vn -0.0000 1.0000 -0.0000
vn -0.0000 -0.0000 1.0000
vn -1.0000 -0.0000 -0.0000
vn -0.0000 -1.0000 -0.0000
vn 1.0000 -0.0000 -0.0000
vn -0.0000 -0.0000 -1.0000
s 0
f 12//1 5//1 7//1 10//1
f 18//2 10//2 7//2 14//2
f 14//3 7//3 5//3 16//3
f 9//4 2//4 4//4 11//4
f 13//5 1//5 3//5 15//5
f 17//6 12//6 1//6 13//6
f 16//6 5//6 12//6 17//6
f 6//4 9//4 11//4 8//4
f 15//2 3//2 10//2 18//2
f 1//1 12//1 10//1 3//1
f 4//2 15//2 18//2 11//2
f 6//6 16//6 17//6 9//6
f 9//6 17//6 13//6 2//6
f 2//5 13//5 15//5 4//5
f 8//3 14//3 16//3 6//3
f 11//2 18//2 14//2 8//2
o LeftArm
v -0.793620 5.944773 0.469809
v -0.809927 2.969911 0.469809
v -0.793620 5.944773 -0.469201
v -0.809926 2.969911 -0.469201
v -1.526889 5.948792 0.469808
v -1.543196 2.973930 0.469809
v -1.526889 5.948792 -0.469201
v -1.543196 2.973930 -0.469201
v -1.543196 2.973930 0.000304
v -0.793620 5.944773 0.000304
v -1.526889 5.948792 0.000304
v -0.809927 2.969911 0.000304
vn 0.0055 1.0000 -0.0000
vn -0.0000 -0.0000 -1.0000
vn -1.0000 0.0055 -0.0000
vn -0.0055 -1.0000 -0.0000
vn 1.0000 -0.0055 -0.0000
vn -0.0000 -0.0000 1.0000
s 0
f 28//7 21//7 25//7 29//7
f 22//8 26//8 25//8 21//8
f 27//9 24//9 23//9 29//9
f 27//10 26//10 22//10 30//10
f 30//11 22//11 21//11 28//11
f 24//12 20//12 19//12 23//12
f 20//11 30//11 28//11 19//11
f 24//10 27//10 30//10 20//10
f 26//9 27//9 29//9 25//9
f 19//7 28//7 29//7 23//7
o LeftLeg
v -0.098560 3.004328 0.469505
v -0.098560 0.029421 0.469505
v -0.098560 3.004328 -0.469505
v -0.098560 0.029421 -0.469505
v -0.831840 3.004328 0.469505
v -0.831840 0.029421 0.469505
v -0.831840 3.004328 -0.469505
v -0.831840 0.029421 -0.469505
v -0.465200 0.029421 0.469505
v -0.465200 3.004328 -0.469505
v -0.465200 0.029421 -0.469505
v -0.465200 3.004328 0.469505
vn -0.0000 1.0000 -0.0000
vn -0.0000 -0.0000 -1.0000
vn -1.0000 -0.0000 -0.0000
vn -0.0000 -1.0000 -0.0000
vn 1.0000 -0.0000 -0.0000
vn -0.0000 -0.0000 1.0000
s 0
f 42//13 40//13 37//13 35//13
f 41//14 38//14 37//14 40//14
f 38//15 36//15 35//15 37//15
f 39//16 41//16 34//16 32//16
f 32//17 34//17 33//17 31//17
f 39//18 32//18 31//18 42//18
f 36//18 39//18 42//18 35//18
f 36//16 38//16 41//16 39//16
f 34//14 41//14 40//14 33//14
f 31//13 33//13 40//13 42//13
o RightArm
v 1.555131 5.918818 0.469505
v 1.579029 2.944007 0.469505
v 1.555130 5.918818 -0.469505
v 1.579029 2.944006 -0.469505
v 0.821874 5.912927 0.469505
v 0.845773 2.938116 0.469505
v 0.821874 5.912927 -0.469505
v 0.845772 2.938116 -0.469504
v 0.845773 2.938116 -0.000000
v 1.555130 5.918818 -0.000000
v 0.821874 5.912927 -0.000000
v 1.579029 2.944007 -0.000000
vn -0.0080 1.0000 -0.0000
vn -0.0000 -0.0000 -1.0000
vn -1.0000 -0.0080 -0.0000
vn 0.0080 -1.0000 -0.0000
vn 1.0000 0.0080 -0.0000
vn -0.0000 -0.0000 1.0000
s 0
f 52//19 45//19 49//19 53//19
f 46//20 50//20 49//20 45//20
f 51//21 48//21 47//21 53//21
f 51//22 50//22 46//22 54//22
f 54//23 46//23 45//23 52//23
f 48//24 44//24 43//24 47//24
f 44//23 54//23 52//23 43//23
f 48//22 51//22 54//22 44//22
f 50//21 51//21 53//21 49//21
f 43//19 52//19 53//19 47//19
o RightLeg
v 0.831185 3.004328 0.469505
v 0.831185 0.029421 0.469505
v 0.831185 3.004328 -0.469505
v 0.831185 0.029421 -0.469505
v 0.097905 3.004328 0.469505
v 0.097905 0.029421 0.469505
v 0.097905 3.004328 -0.469505
v 0.097905 0.029421 -0.469505
v 0.464545 0.029421 0.469505
v 0.464545 3.004328 -0.469505
v 0.464545 0.029421 -0.469505
v 0.464545 3.004328 0.469505
vn -0.0000 1.0000 -0.0000
vn -0.0000 -0.0000 -1.0000
vn -1.0000 -0.0000 -0.0000
vn -0.0000 -1.0000 -0.0000
vn 1.0000 -0.0000 -0.0000
vn -0.0000 -0.0000 1.0000
s 0
f 66//25 64//25 61//25 59//25
f 65//26 62//26 61//26 64//26
f 62//27 60//27 59//27 61//27
f 63//28 65//28 58//28 56//28
f 56//29 58//29 57//29 55//29
f 63//30 56//30 55//30 66//30
f 60//30 63//30 66//30 59//30
f 60//28 62//28 65//28 63//28
f 58//26 65//26 64//26 57//26
f 55//25 57//25 64//25 66//25
o Torso
v 0.829162 5.997508 0.469505
v 0.829162 3.022601 0.469505
v 0.829162 5.997508 -0.469505
v 0.829162 3.022601 -0.469505
v -0.829162 5.997508 0.469505
v -0.829162 3.022601 0.469505
v -0.829162 5.997508 -0.469505
v -0.829162 3.022601 -0.469505
v 0.000000 3.022601 0.469505
v 0.000000 5.997508 -0.469505
v 0.000000 3.022601 -0.469505
v 0.000000 5.997508 0.469505
vn -0.0000 1.0000 -0.0000
vn -0.0000 -0.0000 -1.0000
vn -1.0000 -0.0000 -0.0000
vn -0.0000 -1.0000 -0.0000
vn 1.0000 -0.0000 -0.0000
vn -0.0000 -0.0000 1.0000
s 0
f 78//31 76//31 73//31 71//31
f 77//32 74//32 73//32 76//32
f 74//33 72//33 71//33 73//33
f 75//34 77//34 70//34 68//34
f 68//35 70//35 69//35 67//35
f 75//36 68//36 67//36 78//36
f 72//36 75//36 78//36 71//36
f 72//34 74//34 77//34 75//34
f 70//32 77//32 76//32 69//32
f 67//31 69//31 76//31 78//31
